M48
; DRILL file {KiCad (6.0.7)} date Sun Dec 18 15:12:21 2022
; FORMAT={-:-/ absolute / inch / decimal}
; #@! TF.CreationDate,2022-12-18T15:12:21+02:00
; #@! TF.GenerationSoftware,Kicad,Pcbnew,(6.0.7)
; #@! TF.FileFunction,Plated,1,2,PTH
FMAT,2
INCH
; #@! TA.AperFunction,Plated,PTH,ComponentDrill
T1C0.0276
; #@! TA.AperFunction,Plated,PTH,ComponentDrill
T2C0.0315
; #@! TA.AperFunction,Plated,PTH,ViaDrill
T3C0.0394
; #@! TA.AperFunction,Plated,PTH,ComponentDrill
T4C0.0394
%
G90
G05
T1
X1.9079Y-3.4646
X1.9079Y-3.6417
X1.9079Y-3.7992
X1.9083Y-3.3071
X2.1079Y-3.4646
X2.1079Y-3.6417
X2.1079Y-3.7992
X2.1083Y-3.3071
T2
X1.2Y-4.75
X1.2Y-5.05
X1.3Y-4.75
X1.3Y-5.05
X1.3004Y-3.3504
X1.3004Y-3.4504
X1.3004Y-3.5504
X1.3004Y-3.6504
X1.4Y-4.75
X1.4Y-5.05
X1.5Y-4.75
X1.5Y-5.05
X1.6Y-4.75
X1.6Y-5.05
X1.6004Y-3.3504
X1.6004Y-3.4504
X1.6004Y-3.5504
X1.6004Y-3.6504
X1.7Y-4.75
X1.7Y-5.05
X1.8Y-4.75
X1.8Y-5.05
X2.2677Y-4.4045
X2.2677Y-4.5045
X2.2677Y-4.6045
X2.2677Y-4.7045
X2.2677Y-4.8045
X2.2677Y-4.9045
X2.2677Y-5.0045
X2.5004Y-3.3219
X2.5004Y-3.4219
X2.5004Y-3.5219
X2.5004Y-3.6219
X2.5004Y-3.7219
X2.5004Y-3.8219
X2.5004Y-3.9219
X2.5677Y-4.4045
X2.5677Y-4.5045
X2.5677Y-4.6045
X2.5677Y-4.7045
X2.5677Y-4.8045
X2.5677Y-4.9045
X2.5677Y-5.0045
X2.8004Y-3.3219
X2.8004Y-3.4219
X2.8004Y-3.5219
X2.8004Y-3.6219
X2.8004Y-3.7219
X2.8004Y-3.8219
X2.8004Y-3.9219
X2.8228Y-4.4045
X2.8228Y-4.5045
X2.8228Y-4.6045
X2.8228Y-4.7045
X2.8228Y-4.8045
X2.8228Y-4.9045
X2.8228Y-5.0045
X3.0004Y-3.3219
X3.0004Y-3.4219
X3.0004Y-3.5219
X3.0004Y-3.6219
X3.0004Y-3.7219
X3.0004Y-3.8219
X3.0004Y-3.9219
X3.1228Y-4.4045
X3.1228Y-4.5045
X3.1228Y-4.6045
X3.1228Y-4.7045
X3.1228Y-4.8045
X3.1228Y-4.9045
X3.1228Y-5.0045
X3.3004Y-3.3219
X3.3004Y-3.4219
X3.3004Y-3.5219
X3.3004Y-3.6219
X3.3004Y-3.7219
X3.3004Y-3.8219
X3.3004Y-3.9219
X3.3661Y-4.4006
X3.3661Y-4.5006
X3.3661Y-4.6006
X3.3661Y-4.7006
X3.3661Y-4.8006
X3.3661Y-4.9006
X3.3661Y-5.0006
X3.6004Y-3.3219
X3.6004Y-3.4219
X3.6004Y-3.5219
X3.6004Y-3.6219
X3.6004Y-3.7219
X3.6004Y-3.8219
X3.6004Y-3.9219
X3.6661Y-4.4006
X3.6661Y-4.5006
X3.6661Y-4.6006
X3.6661Y-4.7006
X3.6661Y-4.8006
X3.6661Y-4.9006
X3.6661Y-5.0006
X3.9004Y-3.3219
X3.9004Y-3.4219
X3.9004Y-3.5219
X3.9004Y-3.6219
X3.9004Y-3.7219
X3.9004Y-3.8219
X3.9004Y-3.9219
X3.9016Y-4.3888
X3.9016Y-4.4888
X3.9016Y-4.5888
X3.9016Y-4.6888
X3.9016Y-4.7888
X3.9016Y-4.8888
X3.9016Y-4.9888
X4.2016Y-4.3888
X4.2016Y-4.4888
X4.2016Y-4.5888
X4.2016Y-4.6888
X4.2016Y-4.7888
X4.2016Y-4.8888
X4.2016Y-4.9888
T3
X1.082Y-3.2087
X1.082Y-3.522
X1.6772Y-4.4213
X2.0Y-4.96
X2.16Y-4.96
X2.2874Y-3.5433
X2.2992Y-3.7835
X2.3701Y-4.8071
X2.6693Y-3.9055
X3.13Y-3.39
X3.1642Y-3.9965
X3.17Y-3.51
X3.62Y-4.21
X3.7614Y-4.8959
X4.0787Y-5.1772
X4.252Y-5.1457
T4
X1.3622Y-3.9626
X1.3622Y-4.0626
X1.3622Y-4.1626
X1.3622Y-4.2626
X1.3622Y-4.3626
X1.3622Y-4.4626
X4.1693Y-3.3346
X4.1693Y-3.4346
X4.1693Y-3.5346
X4.1693Y-3.6346
X4.1693Y-3.7346
X4.1693Y-3.8346
X4.1693Y-3.9346
T0
M30
