%TF.GenerationSoftware,KiCad,Pcbnew,(6.0.7)*%
%TF.CreationDate,2022-12-18T15:12:13+02:00*%
%TF.ProjectId,hamming code,68616d6d-696e-4672-9063-6f64652e6b69,rev?*%
%TF.SameCoordinates,Original*%
%TF.FileFunction,Legend,Top*%
%TF.FilePolarity,Positive*%
%FSLAX46Y46*%
G04 Gerber Fmt 4.6, Leading zero omitted, Abs format (unit mm)*
G04 Created by KiCad (PCBNEW (6.0.7)) date 2022-12-18 15:12:13*
%MOMM*%
%LPD*%
G01*
G04 APERTURE LIST*
%ADD10C,0.150000*%
%ADD11C,0.100000*%
%ADD12C,0.120000*%
G04 APERTURE END LIST*
D10*
X52476400Y-107289600D02*
X52476400Y-116890800D01*
X50800000Y-132080000D02*
X27940000Y-132080000D01*
X68580000Y-107340000D02*
X52476400Y-107289600D01*
X88900000Y-107340000D02*
X69850000Y-107340000D01*
X108661200Y-82448400D02*
X108585000Y-84455000D01*
X27940000Y-132080000D02*
X27940000Y-119380000D01*
X108585000Y-128905000D02*
X108623100Y-129590800D01*
X30480000Y-81280000D02*
X59690000Y-81280000D01*
X27940000Y-119380000D02*
X27940000Y-116840000D01*
X68580000Y-127025000D02*
X68580000Y-107340000D01*
X61849000Y-102997000D02*
X61850000Y-104875000D01*
X69850000Y-128905000D02*
X69850000Y-129590800D01*
X61849000Y-82042000D02*
X61849000Y-102997000D01*
X107950000Y-82448400D02*
X108661200Y-82448400D01*
X50800000Y-129540000D02*
X50800000Y-132080000D01*
X61850000Y-104875000D02*
X86000000Y-104875000D01*
X29210000Y-85090000D02*
X29210000Y-98755200D01*
X88900000Y-82475000D02*
X88900000Y-107240000D01*
X85979000Y-82042000D02*
X61849000Y-82042000D01*
X30480000Y-85090000D02*
X29210000Y-85090000D01*
X69850000Y-107340000D02*
X69850000Y-127025000D01*
X52476400Y-116890800D02*
X50800000Y-116890800D01*
X85979000Y-102997000D02*
X85979000Y-82042000D01*
X30480000Y-81280000D02*
X30480000Y-85090000D01*
X59690000Y-81280000D02*
X59690000Y-85090000D01*
X68580000Y-127025000D02*
X68580000Y-129540000D01*
X69888100Y-129590800D02*
X108623100Y-129590800D01*
X59690000Y-85090000D02*
X59639200Y-98704400D01*
X69850000Y-127025000D02*
X69850000Y-128905000D01*
X108585000Y-128905000D02*
X108585000Y-84455000D01*
X107950000Y-82448400D02*
X88900000Y-82448400D01*
X68580000Y-129540000D02*
X50800000Y-129540000D01*
X85979000Y-102997000D02*
X86000000Y-104875000D01*
X27940000Y-116890800D02*
X50800000Y-116890800D01*
X59639200Y-98704400D02*
X29260800Y-98755200D01*
X40874914Y-80614780D02*
X40303485Y-80614780D01*
X40589200Y-80614780D02*
X40589200Y-79614780D01*
X40493961Y-79757638D01*
X40398723Y-79852876D01*
X40303485Y-79900495D01*
X93702857Y-107719761D02*
X93607619Y-107767380D01*
X93417142Y-107767380D01*
X93321904Y-107719761D01*
X93274285Y-107624523D01*
X93274285Y-107243571D01*
X93321904Y-107148333D01*
X93417142Y-107100714D01*
X93607619Y-107100714D01*
X93702857Y-107148333D01*
X93750476Y-107243571D01*
X93750476Y-107338809D01*
X93274285Y-107434047D01*
X94179047Y-107767380D02*
X94179047Y-107100714D01*
X94179047Y-107291190D02*
X94226666Y-107195952D01*
X94274285Y-107148333D01*
X94369523Y-107100714D01*
X94464761Y-107100714D01*
X94798095Y-107767380D02*
X94798095Y-107100714D01*
X94798095Y-107291190D02*
X94845714Y-107195952D01*
X94893333Y-107148333D01*
X94988571Y-107100714D01*
X95083809Y-107100714D01*
X95560000Y-107767380D02*
X95464761Y-107719761D01*
X95417142Y-107672142D01*
X95369523Y-107576904D01*
X95369523Y-107291190D01*
X95417142Y-107195952D01*
X95464761Y-107148333D01*
X95560000Y-107100714D01*
X95702857Y-107100714D01*
X95798095Y-107148333D01*
X95845714Y-107195952D01*
X95893333Y-107291190D01*
X95893333Y-107576904D01*
X95845714Y-107672142D01*
X95798095Y-107719761D01*
X95702857Y-107767380D01*
X95560000Y-107767380D01*
X96321904Y-107767380D02*
X96321904Y-107100714D01*
X96321904Y-107291190D02*
X96369523Y-107195952D01*
X96417142Y-107148333D01*
X96512380Y-107100714D01*
X96607619Y-107100714D01*
X98131428Y-107719761D02*
X98036190Y-107767380D01*
X97845714Y-107767380D01*
X97750476Y-107719761D01*
X97702857Y-107672142D01*
X97655238Y-107576904D01*
X97655238Y-107291190D01*
X97702857Y-107195952D01*
X97750476Y-107148333D01*
X97845714Y-107100714D01*
X98036190Y-107100714D01*
X98131428Y-107148333D01*
X98702857Y-107767380D02*
X98607619Y-107719761D01*
X98560000Y-107672142D01*
X98512380Y-107576904D01*
X98512380Y-107291190D01*
X98560000Y-107195952D01*
X98607619Y-107148333D01*
X98702857Y-107100714D01*
X98845714Y-107100714D01*
X98940952Y-107148333D01*
X98988571Y-107195952D01*
X99036190Y-107291190D01*
X99036190Y-107576904D01*
X98988571Y-107672142D01*
X98940952Y-107719761D01*
X98845714Y-107767380D01*
X98702857Y-107767380D01*
X99464761Y-107767380D02*
X99464761Y-107100714D01*
X99464761Y-107291190D02*
X99512380Y-107195952D01*
X99560000Y-107148333D01*
X99655238Y-107100714D01*
X99750476Y-107100714D01*
X100083809Y-107767380D02*
X100083809Y-107100714D01*
X100083809Y-107291190D02*
X100131428Y-107195952D01*
X100179047Y-107148333D01*
X100274285Y-107100714D01*
X100369523Y-107100714D01*
X101083809Y-107719761D02*
X100988571Y-107767380D01*
X100798095Y-107767380D01*
X100702857Y-107719761D01*
X100655238Y-107624523D01*
X100655238Y-107243571D01*
X100702857Y-107148333D01*
X100798095Y-107100714D01*
X100988571Y-107100714D01*
X101083809Y-107148333D01*
X101131428Y-107243571D01*
X101131428Y-107338809D01*
X100655238Y-107434047D01*
X101988571Y-107719761D02*
X101893333Y-107767380D01*
X101702857Y-107767380D01*
X101607619Y-107719761D01*
X101560000Y-107672142D01*
X101512380Y-107576904D01*
X101512380Y-107291190D01*
X101560000Y-107195952D01*
X101607619Y-107148333D01*
X101702857Y-107100714D01*
X101893333Y-107100714D01*
X101988571Y-107148333D01*
X102274285Y-107100714D02*
X102655238Y-107100714D01*
X102417142Y-106767380D02*
X102417142Y-107624523D01*
X102464761Y-107719761D01*
X102560000Y-107767380D01*
X102655238Y-107767380D01*
X102988571Y-107767380D02*
X102988571Y-107100714D01*
X102988571Y-106767380D02*
X102940952Y-106815000D01*
X102988571Y-106862619D01*
X103036190Y-106815000D01*
X102988571Y-106767380D01*
X102988571Y-106862619D01*
X103607619Y-107767380D02*
X103512380Y-107719761D01*
X103464761Y-107672142D01*
X103417142Y-107576904D01*
X103417142Y-107291190D01*
X103464761Y-107195952D01*
X103512380Y-107148333D01*
X103607619Y-107100714D01*
X103750476Y-107100714D01*
X103845714Y-107148333D01*
X103893333Y-107195952D01*
X103940952Y-107291190D01*
X103940952Y-107576904D01*
X103893333Y-107672142D01*
X103845714Y-107719761D01*
X103750476Y-107767380D01*
X103607619Y-107767380D01*
X104369523Y-107100714D02*
X104369523Y-107767380D01*
X104369523Y-107195952D02*
X104417142Y-107148333D01*
X104512380Y-107100714D01*
X104655238Y-107100714D01*
X104750476Y-107148333D01*
X104798095Y-107243571D01*
X104798095Y-107767380D01*
X102585923Y-95711714D02*
X102585923Y-96711714D01*
X102585923Y-95759333D02*
X102681161Y-95711714D01*
X102871638Y-95711714D01*
X102966876Y-95759333D01*
X103014495Y-95806952D01*
X103062114Y-95902190D01*
X103062114Y-96187904D01*
X103014495Y-96283142D01*
X102966876Y-96330761D01*
X102871638Y-96378380D01*
X102681161Y-96378380D01*
X102585923Y-96330761D01*
X104014495Y-96378380D02*
X103443066Y-96378380D01*
X103728780Y-96378380D02*
X103728780Y-95378380D01*
X103633542Y-95521238D01*
X103538304Y-95616476D01*
X103443066Y-95664095D01*
X102585923Y-97321714D02*
X102585923Y-98321714D01*
X102585923Y-97369333D02*
X102681161Y-97321714D01*
X102871638Y-97321714D01*
X102966876Y-97369333D01*
X103014495Y-97416952D01*
X103062114Y-97512190D01*
X103062114Y-97797904D01*
X103014495Y-97893142D01*
X102966876Y-97940761D01*
X102871638Y-97988380D01*
X102681161Y-97988380D01*
X102585923Y-97940761D01*
X103443066Y-97083619D02*
X103490685Y-97036000D01*
X103585923Y-96988380D01*
X103824019Y-96988380D01*
X103919257Y-97036000D01*
X103966876Y-97083619D01*
X104014495Y-97178857D01*
X104014495Y-97274095D01*
X103966876Y-97416952D01*
X103395447Y-97988380D01*
X104014495Y-97988380D01*
X102585923Y-98931714D02*
X102585923Y-99931714D01*
X102585923Y-98979333D02*
X102681161Y-98931714D01*
X102871638Y-98931714D01*
X102966876Y-98979333D01*
X103014495Y-99026952D01*
X103062114Y-99122190D01*
X103062114Y-99407904D01*
X103014495Y-99503142D01*
X102966876Y-99550761D01*
X102871638Y-99598380D01*
X102681161Y-99598380D01*
X102585923Y-99550761D01*
X103395447Y-98598380D02*
X104014495Y-98598380D01*
X103681161Y-98979333D01*
X103824019Y-98979333D01*
X103919257Y-99026952D01*
X103966876Y-99074571D01*
X104014495Y-99169809D01*
X104014495Y-99407904D01*
X103966876Y-99503142D01*
X103919257Y-99550761D01*
X103824019Y-99598380D01*
X103538304Y-99598380D01*
X103443066Y-99550761D01*
X103395447Y-99503142D01*
D11*
X32585790Y-113754647D02*
X32085790Y-113754647D01*
X32085790Y-113635600D01*
X32109600Y-113564171D01*
X32157219Y-113516552D01*
X32204838Y-113492742D01*
X32300076Y-113468933D01*
X32371504Y-113468933D01*
X32466742Y-113492742D01*
X32514361Y-113516552D01*
X32561980Y-113564171D01*
X32585790Y-113635600D01*
X32585790Y-113754647D01*
X32252457Y-113040361D02*
X32585790Y-113040361D01*
X32061980Y-113159409D02*
X32419123Y-113278457D01*
X32419123Y-112968933D01*
D10*
X55275790Y-109218361D02*
X55180552Y-109265980D01*
X54990076Y-109265980D01*
X54894838Y-109218361D01*
X54847219Y-109123123D01*
X54847219Y-108742171D01*
X54894838Y-108646933D01*
X54990076Y-108599314D01*
X55180552Y-108599314D01*
X55275790Y-108646933D01*
X55323409Y-108742171D01*
X55323409Y-108837409D01*
X54847219Y-108932647D01*
X55751980Y-109265980D02*
X55751980Y-108599314D01*
X55751980Y-108789790D02*
X55799600Y-108694552D01*
X55847219Y-108646933D01*
X55942457Y-108599314D01*
X56037695Y-108599314D01*
X56371028Y-109265980D02*
X56371028Y-108599314D01*
X56371028Y-108789790D02*
X56418647Y-108694552D01*
X56466266Y-108646933D01*
X56561504Y-108599314D01*
X56656742Y-108599314D01*
X57132933Y-109265980D02*
X57037695Y-109218361D01*
X56990076Y-109170742D01*
X56942457Y-109075504D01*
X56942457Y-108789790D01*
X56990076Y-108694552D01*
X57037695Y-108646933D01*
X57132933Y-108599314D01*
X57275790Y-108599314D01*
X57371028Y-108646933D01*
X57418647Y-108694552D01*
X57466266Y-108789790D01*
X57466266Y-109075504D01*
X57418647Y-109170742D01*
X57371028Y-109218361D01*
X57275790Y-109265980D01*
X57132933Y-109265980D01*
X57894838Y-109265980D02*
X57894838Y-108599314D01*
X57894838Y-108789790D02*
X57942457Y-108694552D01*
X57990076Y-108646933D01*
X58085314Y-108599314D01*
X58180552Y-108599314D01*
X59704361Y-109265980D02*
X59704361Y-108265980D01*
X59704361Y-109218361D02*
X59609123Y-109265980D01*
X59418647Y-109265980D01*
X59323409Y-109218361D01*
X59275790Y-109170742D01*
X59228171Y-109075504D01*
X59228171Y-108789790D01*
X59275790Y-108694552D01*
X59323409Y-108646933D01*
X59418647Y-108599314D01*
X59609123Y-108599314D01*
X59704361Y-108646933D01*
X60561504Y-109218361D02*
X60466266Y-109265980D01*
X60275790Y-109265980D01*
X60180552Y-109218361D01*
X60132933Y-109123123D01*
X60132933Y-108742171D01*
X60180552Y-108646933D01*
X60275790Y-108599314D01*
X60466266Y-108599314D01*
X60561504Y-108646933D01*
X60609123Y-108742171D01*
X60609123Y-108837409D01*
X60132933Y-108932647D01*
X60894838Y-108599314D02*
X61275790Y-108599314D01*
X61037695Y-108265980D02*
X61037695Y-109123123D01*
X61085314Y-109218361D01*
X61180552Y-109265980D01*
X61275790Y-109265980D01*
X61990076Y-109218361D02*
X61894838Y-109265980D01*
X61704361Y-109265980D01*
X61609123Y-109218361D01*
X61561504Y-109123123D01*
X61561504Y-108742171D01*
X61609123Y-108646933D01*
X61704361Y-108599314D01*
X61894838Y-108599314D01*
X61990076Y-108646933D01*
X62037695Y-108742171D01*
X62037695Y-108837409D01*
X61561504Y-108932647D01*
X62894838Y-109218361D02*
X62799600Y-109265980D01*
X62609123Y-109265980D01*
X62513885Y-109218361D01*
X62466266Y-109170742D01*
X62418647Y-109075504D01*
X62418647Y-108789790D01*
X62466266Y-108694552D01*
X62513885Y-108646933D01*
X62609123Y-108599314D01*
X62799600Y-108599314D01*
X62894838Y-108646933D01*
X63180552Y-108599314D02*
X63561504Y-108599314D01*
X63323409Y-108265980D02*
X63323409Y-109123123D01*
X63371028Y-109218361D01*
X63466266Y-109265980D01*
X63561504Y-109265980D01*
X63894838Y-109265980D02*
X63894838Y-108599314D01*
X63894838Y-108265980D02*
X63847219Y-108313600D01*
X63894838Y-108361219D01*
X63942457Y-108313600D01*
X63894838Y-108265980D01*
X63894838Y-108361219D01*
X64513885Y-109265980D02*
X64418647Y-109218361D01*
X64371028Y-109170742D01*
X64323409Y-109075504D01*
X64323409Y-108789790D01*
X64371028Y-108694552D01*
X64418647Y-108646933D01*
X64513885Y-108599314D01*
X64656742Y-108599314D01*
X64751980Y-108646933D01*
X64799600Y-108694552D01*
X64847219Y-108789790D01*
X64847219Y-109075504D01*
X64799600Y-109170742D01*
X64751980Y-109218361D01*
X64656742Y-109265980D01*
X64513885Y-109265980D01*
X65275790Y-108599314D02*
X65275790Y-109265980D01*
X65275790Y-108694552D02*
X65323409Y-108646933D01*
X65418647Y-108599314D01*
X65561504Y-108599314D01*
X65656742Y-108646933D01*
X65704361Y-108742171D01*
X65704361Y-109265980D01*
X102385904Y-87800980D02*
X102385904Y-86800980D01*
X102624000Y-86800980D01*
X102766857Y-86848600D01*
X102862095Y-86943838D01*
X102909714Y-87039076D01*
X102957333Y-87229552D01*
X102957333Y-87372409D01*
X102909714Y-87562885D01*
X102862095Y-87658123D01*
X102766857Y-87753361D01*
X102624000Y-87800980D01*
X102385904Y-87800980D01*
X103909714Y-87800980D02*
X103338285Y-87800980D01*
X103624000Y-87800980D02*
X103624000Y-86800980D01*
X103528761Y-86943838D01*
X103433523Y-87039076D01*
X103338285Y-87086695D01*
X102385904Y-89410980D02*
X102385904Y-88410980D01*
X102624000Y-88410980D01*
X102766857Y-88458600D01*
X102862095Y-88553838D01*
X102909714Y-88649076D01*
X102957333Y-88839552D01*
X102957333Y-88982409D01*
X102909714Y-89172885D01*
X102862095Y-89268123D01*
X102766857Y-89363361D01*
X102624000Y-89410980D01*
X102385904Y-89410980D01*
X103338285Y-88506219D02*
X103385904Y-88458600D01*
X103481142Y-88410980D01*
X103719238Y-88410980D01*
X103814476Y-88458600D01*
X103862095Y-88506219D01*
X103909714Y-88601457D01*
X103909714Y-88696695D01*
X103862095Y-88839552D01*
X103290666Y-89410980D01*
X103909714Y-89410980D01*
X102385904Y-91020980D02*
X102385904Y-90020980D01*
X102624000Y-90020980D01*
X102766857Y-90068600D01*
X102862095Y-90163838D01*
X102909714Y-90259076D01*
X102957333Y-90449552D01*
X102957333Y-90592409D01*
X102909714Y-90782885D01*
X102862095Y-90878123D01*
X102766857Y-90973361D01*
X102624000Y-91020980D01*
X102385904Y-91020980D01*
X103290666Y-90020980D02*
X103909714Y-90020980D01*
X103576380Y-90401933D01*
X103719238Y-90401933D01*
X103814476Y-90449552D01*
X103862095Y-90497171D01*
X103909714Y-90592409D01*
X103909714Y-90830504D01*
X103862095Y-90925742D01*
X103814476Y-90973361D01*
X103719238Y-91020980D01*
X103433523Y-91020980D01*
X103338285Y-90973361D01*
X103290666Y-90925742D01*
X102385904Y-92630980D02*
X102385904Y-91630980D01*
X102624000Y-91630980D01*
X102766857Y-91678600D01*
X102862095Y-91773838D01*
X102909714Y-91869076D01*
X102957333Y-92059552D01*
X102957333Y-92202409D01*
X102909714Y-92392885D01*
X102862095Y-92488123D01*
X102766857Y-92583361D01*
X102624000Y-92630980D01*
X102385904Y-92630980D01*
X103814476Y-91964314D02*
X103814476Y-92630980D01*
X103576380Y-91583361D02*
X103338285Y-92297647D01*
X103957333Y-92297647D01*
X65659523Y-104202380D02*
X65659523Y-103202380D01*
X66088095Y-104202380D02*
X66088095Y-103678571D01*
X66040476Y-103583333D01*
X65945238Y-103535714D01*
X65802380Y-103535714D01*
X65707142Y-103583333D01*
X65659523Y-103630952D01*
X66992857Y-104202380D02*
X66992857Y-103678571D01*
X66945238Y-103583333D01*
X66849999Y-103535714D01*
X66659523Y-103535714D01*
X66564285Y-103583333D01*
X66992857Y-104154761D02*
X66897619Y-104202380D01*
X66659523Y-104202380D01*
X66564285Y-104154761D01*
X66516666Y-104059523D01*
X66516666Y-103964285D01*
X66564285Y-103869047D01*
X66659523Y-103821428D01*
X66897619Y-103821428D01*
X66992857Y-103773809D01*
X67469047Y-104202380D02*
X67469047Y-103535714D01*
X67469047Y-103630952D02*
X67516666Y-103583333D01*
X67611904Y-103535714D01*
X67754761Y-103535714D01*
X67850000Y-103583333D01*
X67897619Y-103678571D01*
X67897619Y-104202380D01*
X67897619Y-103678571D02*
X67945238Y-103583333D01*
X68040476Y-103535714D01*
X68183333Y-103535714D01*
X68278571Y-103583333D01*
X68326190Y-103678571D01*
X68326190Y-104202380D01*
X68802380Y-104202380D02*
X68802380Y-103535714D01*
X68802380Y-103630952D02*
X68850000Y-103583333D01*
X68945238Y-103535714D01*
X69088095Y-103535714D01*
X69183333Y-103583333D01*
X69230952Y-103678571D01*
X69230952Y-104202380D01*
X69230952Y-103678571D02*
X69278571Y-103583333D01*
X69373809Y-103535714D01*
X69516666Y-103535714D01*
X69611904Y-103583333D01*
X69659523Y-103678571D01*
X69659523Y-104202380D01*
X70135714Y-104202380D02*
X70135714Y-103535714D01*
X70135714Y-103202380D02*
X70088095Y-103250000D01*
X70135714Y-103297619D01*
X70183333Y-103250000D01*
X70135714Y-103202380D01*
X70135714Y-103297619D01*
X70611904Y-103535714D02*
X70611904Y-104202380D01*
X70611904Y-103630952D02*
X70659523Y-103583333D01*
X70754761Y-103535714D01*
X70897619Y-103535714D01*
X70992857Y-103583333D01*
X71040476Y-103678571D01*
X71040476Y-104202380D01*
X71945238Y-103535714D02*
X71945238Y-104345238D01*
X71897619Y-104440476D01*
X71850000Y-104488095D01*
X71754761Y-104535714D01*
X71611904Y-104535714D01*
X71516666Y-104488095D01*
X71945238Y-104154761D02*
X71850000Y-104202380D01*
X71659523Y-104202380D01*
X71564285Y-104154761D01*
X71516666Y-104107142D01*
X71469047Y-104011904D01*
X71469047Y-103726190D01*
X71516666Y-103630952D01*
X71564285Y-103583333D01*
X71659523Y-103535714D01*
X71850000Y-103535714D01*
X71945238Y-103583333D01*
X73611904Y-104154761D02*
X73516666Y-104202380D01*
X73326190Y-104202380D01*
X73230952Y-104154761D01*
X73183333Y-104107142D01*
X73135714Y-104011904D01*
X73135714Y-103726190D01*
X73183333Y-103630952D01*
X73230952Y-103583333D01*
X73326190Y-103535714D01*
X73516666Y-103535714D01*
X73611904Y-103583333D01*
X74183333Y-104202380D02*
X74088095Y-104154761D01*
X74040476Y-104107142D01*
X73992857Y-104011904D01*
X73992857Y-103726190D01*
X74040476Y-103630952D01*
X74088095Y-103583333D01*
X74183333Y-103535714D01*
X74326190Y-103535714D01*
X74421428Y-103583333D01*
X74469047Y-103630952D01*
X74516666Y-103726190D01*
X74516666Y-104011904D01*
X74469047Y-104107142D01*
X74421428Y-104154761D01*
X74326190Y-104202380D01*
X74183333Y-104202380D01*
X75373809Y-104202380D02*
X75373809Y-103202380D01*
X75373809Y-104154761D02*
X75278571Y-104202380D01*
X75088095Y-104202380D01*
X74992857Y-104154761D01*
X74945238Y-104107142D01*
X74897619Y-104011904D01*
X74897619Y-103726190D01*
X74945238Y-103630952D01*
X74992857Y-103583333D01*
X75088095Y-103535714D01*
X75278571Y-103535714D01*
X75373809Y-103583333D01*
X76230952Y-104154761D02*
X76135714Y-104202380D01*
X75945238Y-104202380D01*
X75850000Y-104154761D01*
X75802380Y-104059523D01*
X75802380Y-103678571D01*
X75850000Y-103583333D01*
X75945238Y-103535714D01*
X76135714Y-103535714D01*
X76230952Y-103583333D01*
X76278571Y-103678571D01*
X76278571Y-103773809D01*
X75802380Y-103869047D01*
X77897619Y-103535714D02*
X77897619Y-104345238D01*
X77850000Y-104440476D01*
X77802380Y-104488095D01*
X77707142Y-104535714D01*
X77564285Y-104535714D01*
X77469047Y-104488095D01*
X77897619Y-104154761D02*
X77802380Y-104202380D01*
X77611904Y-104202380D01*
X77516666Y-104154761D01*
X77469047Y-104107142D01*
X77421428Y-104011904D01*
X77421428Y-103726190D01*
X77469047Y-103630952D01*
X77516666Y-103583333D01*
X77611904Y-103535714D01*
X77802380Y-103535714D01*
X77897619Y-103583333D01*
X78754761Y-104154761D02*
X78659523Y-104202380D01*
X78469047Y-104202380D01*
X78373809Y-104154761D01*
X78326190Y-104059523D01*
X78326190Y-103678571D01*
X78373809Y-103583333D01*
X78469047Y-103535714D01*
X78659523Y-103535714D01*
X78754761Y-103583333D01*
X78802380Y-103678571D01*
X78802380Y-103773809D01*
X78326190Y-103869047D01*
X79230952Y-103535714D02*
X79230952Y-104202380D01*
X79230952Y-103630952D02*
X79278571Y-103583333D01*
X79373809Y-103535714D01*
X79516666Y-103535714D01*
X79611904Y-103583333D01*
X79659523Y-103678571D01*
X79659523Y-104202380D01*
X80135714Y-104202380D02*
X80135714Y-103535714D01*
X80135714Y-103726190D02*
X80183333Y-103630952D01*
X80230952Y-103583333D01*
X80326190Y-103535714D01*
X80421428Y-103535714D01*
X81183333Y-104202380D02*
X81183333Y-103678571D01*
X81135714Y-103583333D01*
X81040476Y-103535714D01*
X80850000Y-103535714D01*
X80754761Y-103583333D01*
X81183333Y-104154761D02*
X81088095Y-104202380D01*
X80850000Y-104202380D01*
X80754761Y-104154761D01*
X80707142Y-104059523D01*
X80707142Y-103964285D01*
X80754761Y-103869047D01*
X80850000Y-103821428D01*
X81088095Y-103821428D01*
X81183333Y-103773809D01*
X81516666Y-103535714D02*
X81897619Y-103535714D01*
X81659523Y-103202380D02*
X81659523Y-104059523D01*
X81707142Y-104154761D01*
X81802380Y-104202380D01*
X81897619Y-104202380D01*
X82230952Y-104202380D02*
X82230952Y-103535714D01*
X82230952Y-103202380D02*
X82183333Y-103250000D01*
X82230952Y-103297619D01*
X82278571Y-103250000D01*
X82230952Y-103202380D01*
X82230952Y-103297619D01*
X82850000Y-104202380D02*
X82754761Y-104154761D01*
X82707142Y-104107142D01*
X82659523Y-104011904D01*
X82659523Y-103726190D01*
X82707142Y-103630952D01*
X82754761Y-103583333D01*
X82850000Y-103535714D01*
X82992857Y-103535714D01*
X83088095Y-103583333D01*
X83135714Y-103630952D01*
X83183333Y-103726190D01*
X83183333Y-104011904D01*
X83135714Y-104107142D01*
X83088095Y-104154761D01*
X82992857Y-104202380D01*
X82850000Y-104202380D01*
X83611904Y-103535714D02*
X83611904Y-104202380D01*
X83611904Y-103630952D02*
X83659523Y-103583333D01*
X83754761Y-103535714D01*
X83897619Y-103535714D01*
X83992857Y-103583333D01*
X84040476Y-103678571D01*
X84040476Y-104202380D01*
X32565980Y-79767180D02*
X32661219Y-79767180D01*
X32756457Y-79814800D01*
X32804076Y-79862419D01*
X32851695Y-79957657D01*
X32899314Y-80148133D01*
X32899314Y-80386228D01*
X32851695Y-80576704D01*
X32804076Y-80671942D01*
X32756457Y-80719561D01*
X32661219Y-80767180D01*
X32565980Y-80767180D01*
X32470742Y-80719561D01*
X32423123Y-80671942D01*
X32375504Y-80576704D01*
X32327885Y-80386228D01*
X32327885Y-80148133D01*
X32375504Y-79957657D01*
X32423123Y-79862419D01*
X32470742Y-79814800D01*
X32565980Y-79767180D01*
D11*
X32484190Y-108573047D02*
X31984190Y-108573047D01*
X31984190Y-108454000D01*
X32008000Y-108382571D01*
X32055619Y-108334952D01*
X32103238Y-108311142D01*
X32198476Y-108287333D01*
X32269904Y-108287333D01*
X32365142Y-108311142D01*
X32412761Y-108334952D01*
X32460380Y-108382571D01*
X32484190Y-108454000D01*
X32484190Y-108573047D01*
X32031809Y-108096857D02*
X32008000Y-108073047D01*
X31984190Y-108025428D01*
X31984190Y-107906380D01*
X32008000Y-107858761D01*
X32031809Y-107834952D01*
X32079428Y-107811142D01*
X32127047Y-107811142D01*
X32198476Y-107834952D01*
X32484190Y-108120666D01*
X32484190Y-107811142D01*
X32534990Y-111214647D02*
X32034990Y-111214647D01*
X32034990Y-111095600D01*
X32058800Y-111024171D01*
X32106419Y-110976552D01*
X32154038Y-110952742D01*
X32249276Y-110928933D01*
X32320704Y-110928933D01*
X32415942Y-110952742D01*
X32463561Y-110976552D01*
X32511180Y-111024171D01*
X32534990Y-111095600D01*
X32534990Y-111214647D01*
X32034990Y-110762266D02*
X32034990Y-110452742D01*
X32225466Y-110619409D01*
X32225466Y-110547980D01*
X32249276Y-110500361D01*
X32273085Y-110476552D01*
X32320704Y-110452742D01*
X32439752Y-110452742D01*
X32487371Y-110476552D01*
X32511180Y-110500361D01*
X32534990Y-110547980D01*
X32534990Y-110690838D01*
X32511180Y-110738457D01*
X32487371Y-110762266D01*
D10*
X31118800Y-98042361D02*
X31023561Y-98089980D01*
X30833085Y-98089980D01*
X30737847Y-98042361D01*
X30690228Y-97947123D01*
X30690228Y-97566171D01*
X30737847Y-97470933D01*
X30833085Y-97423314D01*
X31023561Y-97423314D01*
X31118800Y-97470933D01*
X31166419Y-97566171D01*
X31166419Y-97661409D01*
X30690228Y-97756647D01*
X31594990Y-98089980D02*
X31594990Y-97423314D01*
X31594990Y-97613790D02*
X31642609Y-97518552D01*
X31690228Y-97470933D01*
X31785466Y-97423314D01*
X31880704Y-97423314D01*
X32214038Y-98089980D02*
X32214038Y-97423314D01*
X32214038Y-97613790D02*
X32261657Y-97518552D01*
X32309276Y-97470933D01*
X32404514Y-97423314D01*
X32499752Y-97423314D01*
X32975942Y-98089980D02*
X32880704Y-98042361D01*
X32833085Y-97994742D01*
X32785466Y-97899504D01*
X32785466Y-97613790D01*
X32833085Y-97518552D01*
X32880704Y-97470933D01*
X32975942Y-97423314D01*
X33118800Y-97423314D01*
X33214038Y-97470933D01*
X33261657Y-97518552D01*
X33309276Y-97613790D01*
X33309276Y-97899504D01*
X33261657Y-97994742D01*
X33214038Y-98042361D01*
X33118800Y-98089980D01*
X32975942Y-98089980D01*
X33737847Y-98089980D02*
X33737847Y-97423314D01*
X33737847Y-97613790D02*
X33785466Y-97518552D01*
X33833085Y-97470933D01*
X33928323Y-97423314D01*
X34023561Y-97423314D01*
X35118800Y-98089980D02*
X35118800Y-97423314D01*
X35118800Y-97089980D02*
X35071180Y-97137600D01*
X35118800Y-97185219D01*
X35166419Y-97137600D01*
X35118800Y-97089980D01*
X35118800Y-97185219D01*
X35594990Y-97423314D02*
X35594990Y-98089980D01*
X35594990Y-97518552D02*
X35642609Y-97470933D01*
X35737847Y-97423314D01*
X35880704Y-97423314D01*
X35975942Y-97470933D01*
X36023561Y-97566171D01*
X36023561Y-98089980D01*
X36928323Y-97423314D02*
X36928323Y-98232838D01*
X36880704Y-98328076D01*
X36833085Y-98375695D01*
X36737847Y-98423314D01*
X36594990Y-98423314D01*
X36499752Y-98375695D01*
X36928323Y-98042361D02*
X36833085Y-98089980D01*
X36642609Y-98089980D01*
X36547371Y-98042361D01*
X36499752Y-97994742D01*
X36452133Y-97899504D01*
X36452133Y-97613790D01*
X36499752Y-97518552D01*
X36547371Y-97470933D01*
X36642609Y-97423314D01*
X36833085Y-97423314D01*
X36928323Y-97470933D01*
X37785466Y-98042361D02*
X37690228Y-98089980D01*
X37499752Y-98089980D01*
X37404514Y-98042361D01*
X37356895Y-97947123D01*
X37356895Y-97566171D01*
X37404514Y-97470933D01*
X37499752Y-97423314D01*
X37690228Y-97423314D01*
X37785466Y-97470933D01*
X37833085Y-97566171D01*
X37833085Y-97661409D01*
X37356895Y-97756647D01*
X38690228Y-98042361D02*
X38594990Y-98089980D01*
X38404514Y-98089980D01*
X38309276Y-98042361D01*
X38261657Y-97994742D01*
X38214038Y-97899504D01*
X38214038Y-97613790D01*
X38261657Y-97518552D01*
X38309276Y-97470933D01*
X38404514Y-97423314D01*
X38594990Y-97423314D01*
X38690228Y-97470933D01*
X38975942Y-97423314D02*
X39356895Y-97423314D01*
X39118800Y-97089980D02*
X39118800Y-97947123D01*
X39166419Y-98042361D01*
X39261657Y-98089980D01*
X39356895Y-98089980D01*
X39690228Y-98089980D02*
X39690228Y-97423314D01*
X39690228Y-97089980D02*
X39642609Y-97137600D01*
X39690228Y-97185219D01*
X39737847Y-97137600D01*
X39690228Y-97089980D01*
X39690228Y-97185219D01*
X40309276Y-98089980D02*
X40214038Y-98042361D01*
X40166419Y-97994742D01*
X40118800Y-97899504D01*
X40118800Y-97613790D01*
X40166419Y-97518552D01*
X40214038Y-97470933D01*
X40309276Y-97423314D01*
X40452133Y-97423314D01*
X40547371Y-97470933D01*
X40594990Y-97518552D01*
X40642609Y-97613790D01*
X40642609Y-97899504D01*
X40594990Y-97994742D01*
X40547371Y-98042361D01*
X40452133Y-98089980D01*
X40309276Y-98089980D01*
X41071180Y-97423314D02*
X41071180Y-98089980D01*
X41071180Y-97518552D02*
X41118800Y-97470933D01*
X41214038Y-97423314D01*
X41356895Y-97423314D01*
X41452133Y-97470933D01*
X41499752Y-97566171D01*
X41499752Y-98089980D01*
D11*
X32484190Y-106287047D02*
X31984190Y-106287047D01*
X31984190Y-106168000D01*
X32008000Y-106096571D01*
X32055619Y-106048952D01*
X32103238Y-106025142D01*
X32198476Y-106001333D01*
X32269904Y-106001333D01*
X32365142Y-106025142D01*
X32412761Y-106048952D01*
X32460380Y-106096571D01*
X32484190Y-106168000D01*
X32484190Y-106287047D01*
X32484190Y-105525142D02*
X32484190Y-105810857D01*
X32484190Y-105668000D02*
X31984190Y-105668000D01*
X32055619Y-105715619D01*
X32103238Y-105763238D01*
X32127047Y-105810857D01*
D10*
X30734095Y-102674800D02*
X30638857Y-102627180D01*
X30496000Y-102627180D01*
X30353142Y-102674800D01*
X30257904Y-102770038D01*
X30210285Y-102865276D01*
X30162666Y-103055752D01*
X30162666Y-103198609D01*
X30210285Y-103389085D01*
X30257904Y-103484323D01*
X30353142Y-103579561D01*
X30496000Y-103627180D01*
X30591238Y-103627180D01*
X30734095Y-103579561D01*
X30781714Y-103531942D01*
X30781714Y-103198609D01*
X30591238Y-103198609D01*
X31210285Y-103627180D02*
X31210285Y-102627180D01*
X31781714Y-103627180D01*
X31781714Y-102627180D01*
X32257904Y-103627180D02*
X32257904Y-102627180D01*
X32496000Y-102627180D01*
X32638857Y-102674800D01*
X32734095Y-102770038D01*
X32781714Y-102865276D01*
X32829333Y-103055752D01*
X32829333Y-103198609D01*
X32781714Y-103389085D01*
X32734095Y-103484323D01*
X32638857Y-103579561D01*
X32496000Y-103627180D01*
X32257904Y-103627180D01*
X31711923Y-99629980D02*
X31235733Y-99629980D01*
X31188114Y-100106171D01*
X31235733Y-100058552D01*
X31330971Y-100010933D01*
X31569066Y-100010933D01*
X31664304Y-100058552D01*
X31711923Y-100106171D01*
X31759542Y-100201409D01*
X31759542Y-100439504D01*
X31711923Y-100534742D01*
X31664304Y-100582361D01*
X31569066Y-100629980D01*
X31330971Y-100629980D01*
X31235733Y-100582361D01*
X31188114Y-100534742D01*
X32045257Y-99629980D02*
X32378590Y-100629980D01*
X32711923Y-99629980D01*
%TO.C,U8*%
X74748095Y-113872380D02*
X74748095Y-114681904D01*
X74795714Y-114777142D01*
X74843333Y-114824761D01*
X74938571Y-114872380D01*
X75129047Y-114872380D01*
X75224285Y-114824761D01*
X75271904Y-114777142D01*
X75319523Y-114681904D01*
X75319523Y-113872380D01*
X75938571Y-114300952D02*
X75843333Y-114253333D01*
X75795714Y-114205714D01*
X75748095Y-114110476D01*
X75748095Y-114062857D01*
X75795714Y-113967619D01*
X75843333Y-113920000D01*
X75938571Y-113872380D01*
X76129047Y-113872380D01*
X76224285Y-113920000D01*
X76271904Y-113967619D01*
X76319523Y-114062857D01*
X76319523Y-114110476D01*
X76271904Y-114205714D01*
X76224285Y-114253333D01*
X76129047Y-114300952D01*
X75938571Y-114300952D01*
X75843333Y-114348571D01*
X75795714Y-114396190D01*
X75748095Y-114491428D01*
X75748095Y-114681904D01*
X75795714Y-114777142D01*
X75843333Y-114824761D01*
X75938571Y-114872380D01*
X76129047Y-114872380D01*
X76224285Y-114824761D01*
X76271904Y-114777142D01*
X76319523Y-114681904D01*
X76319523Y-114491428D01*
X76271904Y-114396190D01*
X76224285Y-114348571D01*
X76129047Y-114300952D01*
%TO.C,J2*%
X102790666Y-84034380D02*
X102790666Y-84748666D01*
X102743047Y-84891523D01*
X102647809Y-84986761D01*
X102504952Y-85034380D01*
X102409714Y-85034380D01*
X103219238Y-84129619D02*
X103266857Y-84082000D01*
X103362095Y-84034380D01*
X103600190Y-84034380D01*
X103695428Y-84082000D01*
X103743047Y-84129619D01*
X103790666Y-84224857D01*
X103790666Y-84320095D01*
X103743047Y-84462952D01*
X103171619Y-85034380D01*
X103790666Y-85034380D01*
%TO.C,U5*%
X94488095Y-91452380D02*
X94488095Y-92261904D01*
X94535714Y-92357142D01*
X94583333Y-92404761D01*
X94678571Y-92452380D01*
X94869047Y-92452380D01*
X94964285Y-92404761D01*
X95011904Y-92357142D01*
X95059523Y-92261904D01*
X95059523Y-91452380D01*
X96011904Y-91452380D02*
X95535714Y-91452380D01*
X95488095Y-91928571D01*
X95535714Y-91880952D01*
X95630952Y-91833333D01*
X95869047Y-91833333D01*
X95964285Y-91880952D01*
X96011904Y-91928571D01*
X96059523Y-92023809D01*
X96059523Y-92261904D01*
X96011904Y-92357142D01*
X95964285Y-92404761D01*
X95869047Y-92452380D01*
X95630952Y-92452380D01*
X95535714Y-92404761D01*
X95488095Y-92357142D01*
%TO.C,R1*%
X50843333Y-84432380D02*
X50510000Y-83956190D01*
X50271904Y-84432380D02*
X50271904Y-83432380D01*
X50652857Y-83432380D01*
X50748095Y-83480000D01*
X50795714Y-83527619D01*
X50843333Y-83622857D01*
X50843333Y-83765714D01*
X50795714Y-83860952D01*
X50748095Y-83908571D01*
X50652857Y-83956190D01*
X50271904Y-83956190D01*
X51795714Y-84432380D02*
X51224285Y-84432380D01*
X51510000Y-84432380D02*
X51510000Y-83432380D01*
X51414761Y-83575238D01*
X51319523Y-83670476D01*
X51224285Y-83718095D01*
%TO.C,U4*%
X61273095Y-114507380D02*
X61273095Y-115316904D01*
X61320714Y-115412142D01*
X61368333Y-115459761D01*
X61463571Y-115507380D01*
X61654047Y-115507380D01*
X61749285Y-115459761D01*
X61796904Y-115412142D01*
X61844523Y-115316904D01*
X61844523Y-114507380D01*
X62749285Y-114840714D02*
X62749285Y-115507380D01*
X62511190Y-114459761D02*
X62273095Y-115174047D01*
X62892142Y-115174047D01*
%TO.C,U2*%
X79258095Y-91452380D02*
X79258095Y-92261904D01*
X79305714Y-92357142D01*
X79353333Y-92404761D01*
X79448571Y-92452380D01*
X79639047Y-92452380D01*
X79734285Y-92404761D01*
X79781904Y-92357142D01*
X79829523Y-92261904D01*
X79829523Y-91452380D01*
X80258095Y-91547619D02*
X80305714Y-91500000D01*
X80400952Y-91452380D01*
X80639047Y-91452380D01*
X80734285Y-91500000D01*
X80781904Y-91547619D01*
X80829523Y-91642857D01*
X80829523Y-91738095D01*
X80781904Y-91880952D01*
X80210476Y-92452380D01*
X80829523Y-92452380D01*
%TO.C,SW1*%
X35506666Y-82394761D02*
X35649523Y-82442380D01*
X35887619Y-82442380D01*
X35982857Y-82394761D01*
X36030476Y-82347142D01*
X36078095Y-82251904D01*
X36078095Y-82156666D01*
X36030476Y-82061428D01*
X35982857Y-82013809D01*
X35887619Y-81966190D01*
X35697142Y-81918571D01*
X35601904Y-81870952D01*
X35554285Y-81823333D01*
X35506666Y-81728095D01*
X35506666Y-81632857D01*
X35554285Y-81537619D01*
X35601904Y-81490000D01*
X35697142Y-81442380D01*
X35935238Y-81442380D01*
X36078095Y-81490000D01*
X36411428Y-81442380D02*
X36649523Y-82442380D01*
X36840000Y-81728095D01*
X37030476Y-82442380D01*
X37268571Y-81442380D01*
X38173333Y-82442380D02*
X37601904Y-82442380D01*
X37887619Y-82442380D02*
X37887619Y-81442380D01*
X37792380Y-81585238D01*
X37697142Y-81680476D01*
X37601904Y-81728095D01*
%TO.C,U6*%
X88548095Y-113772380D02*
X88548095Y-114581904D01*
X88595714Y-114677142D01*
X88643333Y-114724761D01*
X88738571Y-114772380D01*
X88929047Y-114772380D01*
X89024285Y-114724761D01*
X89071904Y-114677142D01*
X89119523Y-114581904D01*
X89119523Y-113772380D01*
X90024285Y-113772380D02*
X89833809Y-113772380D01*
X89738571Y-113820000D01*
X89690952Y-113867619D01*
X89595714Y-114010476D01*
X89548095Y-114200952D01*
X89548095Y-114581904D01*
X89595714Y-114677142D01*
X89643333Y-114724761D01*
X89738571Y-114772380D01*
X89929047Y-114772380D01*
X90024285Y-114724761D01*
X90071904Y-114677142D01*
X90119523Y-114581904D01*
X90119523Y-114343809D01*
X90071904Y-114248571D01*
X90024285Y-114200952D01*
X89929047Y-114153333D01*
X89738571Y-114153333D01*
X89643333Y-114200952D01*
X89595714Y-114248571D01*
X89548095Y-114343809D01*
%TO.C,U3*%
X47502380Y-125221904D02*
X48311904Y-125221904D01*
X48407142Y-125174285D01*
X48454761Y-125126666D01*
X48502380Y-125031428D01*
X48502380Y-124840952D01*
X48454761Y-124745714D01*
X48407142Y-124698095D01*
X48311904Y-124650476D01*
X47502380Y-124650476D01*
X47502380Y-124269523D02*
X47502380Y-123650476D01*
X47883333Y-123983809D01*
X47883333Y-123840952D01*
X47930952Y-123745714D01*
X47978571Y-123698095D01*
X48073809Y-123650476D01*
X48311904Y-123650476D01*
X48407142Y-123698095D01*
X48454761Y-123745714D01*
X48502380Y-123840952D01*
X48502380Y-124126666D01*
X48454761Y-124221904D01*
X48407142Y-124269523D01*
%TO.C,J1*%
X36852266Y-102271580D02*
X36852266Y-102985866D01*
X36804647Y-103128723D01*
X36709409Y-103223961D01*
X36566552Y-103271580D01*
X36471314Y-103271580D01*
X37852266Y-103271580D02*
X37280838Y-103271580D01*
X37566552Y-103271580D02*
X37566552Y-102271580D01*
X37471314Y-102414438D01*
X37376076Y-102509676D01*
X37280838Y-102557295D01*
%TO.C,R4*%
X50793333Y-96952380D02*
X50460000Y-96476190D01*
X50221904Y-96952380D02*
X50221904Y-95952380D01*
X50602857Y-95952380D01*
X50698095Y-96000000D01*
X50745714Y-96047619D01*
X50793333Y-96142857D01*
X50793333Y-96285714D01*
X50745714Y-96380952D01*
X50698095Y-96428571D01*
X50602857Y-96476190D01*
X50221904Y-96476190D01*
X51650476Y-96285714D02*
X51650476Y-96952380D01*
X51412380Y-95904761D02*
X51174285Y-96619047D01*
X51793333Y-96619047D01*
%TO.C,U7*%
X102148095Y-113472380D02*
X102148095Y-114281904D01*
X102195714Y-114377142D01*
X102243333Y-114424761D01*
X102338571Y-114472380D01*
X102529047Y-114472380D01*
X102624285Y-114424761D01*
X102671904Y-114377142D01*
X102719523Y-114281904D01*
X102719523Y-113472380D01*
X103100476Y-113472380D02*
X103767142Y-113472380D01*
X103338571Y-114472380D01*
%TO.C,U1*%
X66558095Y-91452380D02*
X66558095Y-92261904D01*
X66605714Y-92357142D01*
X66653333Y-92404761D01*
X66748571Y-92452380D01*
X66939047Y-92452380D01*
X67034285Y-92404761D01*
X67081904Y-92357142D01*
X67129523Y-92261904D01*
X67129523Y-91452380D01*
X68129523Y-92452380D02*
X67558095Y-92452380D01*
X67843809Y-92452380D02*
X67843809Y-91452380D01*
X67748571Y-91595238D01*
X67653333Y-91690476D01*
X67558095Y-91738095D01*
%TO.C,R3*%
X50887333Y-92959180D02*
X50554000Y-92482990D01*
X50315904Y-92959180D02*
X50315904Y-91959180D01*
X50696857Y-91959180D01*
X50792095Y-92006800D01*
X50839714Y-92054419D01*
X50887333Y-92149657D01*
X50887333Y-92292514D01*
X50839714Y-92387752D01*
X50792095Y-92435371D01*
X50696857Y-92482990D01*
X50315904Y-92482990D01*
X51220666Y-91959180D02*
X51839714Y-91959180D01*
X51506380Y-92340133D01*
X51649238Y-92340133D01*
X51744476Y-92387752D01*
X51792095Y-92435371D01*
X51839714Y-92530609D01*
X51839714Y-92768704D01*
X51792095Y-92863942D01*
X51744476Y-92911561D01*
X51649238Y-92959180D01*
X51363523Y-92959180D01*
X51268285Y-92911561D01*
X51220666Y-92863942D01*
%TO.C,R2*%
X50708333Y-88369380D02*
X50375000Y-87893190D01*
X50136904Y-88369380D02*
X50136904Y-87369380D01*
X50517857Y-87369380D01*
X50613095Y-87417000D01*
X50660714Y-87464619D01*
X50708333Y-87559857D01*
X50708333Y-87702714D01*
X50660714Y-87797952D01*
X50613095Y-87845571D01*
X50517857Y-87893190D01*
X50136904Y-87893190D01*
X51089285Y-87464619D02*
X51136904Y-87417000D01*
X51232142Y-87369380D01*
X51470238Y-87369380D01*
X51565476Y-87417000D01*
X51613095Y-87464619D01*
X51660714Y-87559857D01*
X51660714Y-87655095D01*
X51613095Y-87797952D01*
X51041666Y-88369380D01*
X51660714Y-88369380D01*
D12*
%TO.C,U8*%
X72860000Y-110545000D02*
X72860000Y-128445000D01*
X72860000Y-128445000D02*
X78160000Y-128445000D01*
X78160000Y-128445000D02*
X78160000Y-110545000D01*
X74510000Y-110545000D02*
X72860000Y-110545000D01*
X78160000Y-110545000D02*
X76510000Y-110545000D01*
X74510000Y-110545000D02*
G75*
G03*
X76510000Y-110545000I1000000J0D01*
G01*
%TO.C,J2*%
X104570000Y-85970000D02*
X107230000Y-85970000D01*
X104570000Y-84700000D02*
X104570000Y-83370000D01*
X107230000Y-85970000D02*
X107230000Y-101270000D01*
X104570000Y-83370000D02*
X105900000Y-83370000D01*
X104570000Y-101270000D02*
X107230000Y-101270000D01*
X104570000Y-85970000D02*
X104570000Y-101270000D01*
%TO.C,U5*%
X92610000Y-100945000D02*
X97910000Y-100945000D01*
X92610000Y-83045000D02*
X92610000Y-100945000D01*
X94260000Y-83045000D02*
X92610000Y-83045000D01*
X97910000Y-100945000D02*
X97910000Y-83045000D01*
X97910000Y-83045000D02*
X96260000Y-83045000D01*
X94260000Y-83045000D02*
G75*
G03*
X96260000Y-83045000I1000000J0D01*
G01*
%TO.C,R1*%
X49090000Y-83080000D02*
X52930000Y-83080000D01*
X49090000Y-84920000D02*
X52930000Y-84920000D01*
%TO.C,U4*%
X64060000Y-110545000D02*
X62410000Y-110545000D01*
X58760000Y-128445000D02*
X64060000Y-128445000D01*
X60410000Y-110545000D02*
X58760000Y-110545000D01*
X58760000Y-110545000D02*
X58760000Y-128445000D01*
X64060000Y-128445000D02*
X64060000Y-110545000D01*
X60410000Y-110545000D02*
G75*
G03*
X62410000Y-110545000I1000000J0D01*
G01*
%TO.C,U2*%
X77370000Y-83045000D02*
X77370000Y-100945000D01*
X77370000Y-100945000D02*
X82670000Y-100945000D01*
X82670000Y-100945000D02*
X82670000Y-83045000D01*
X82670000Y-83045000D02*
X81020000Y-83045000D01*
X79020000Y-83045000D02*
X77370000Y-83045000D01*
X79020000Y-83045000D02*
G75*
G03*
X81020000Y-83045000I1000000J0D01*
G01*
%TO.C,SW1*%
X35030000Y-89545000D02*
X35030000Y-90815000D01*
X35030000Y-85185000D02*
X36236667Y-85185000D01*
X35030000Y-89665000D02*
X36236667Y-89665000D01*
X35030000Y-87245000D02*
X36236667Y-87245000D01*
X36236667Y-84465000D02*
X36236667Y-85735000D01*
X35030000Y-93165000D02*
X36236667Y-93165000D01*
X35030000Y-92685000D02*
X36236667Y-92685000D01*
X38650000Y-90815000D02*
X38650000Y-89545000D01*
X35030000Y-87725000D02*
X36236667Y-87725000D01*
X38650000Y-84465000D02*
X35030000Y-84465000D01*
X35030000Y-84705000D02*
X36236667Y-84705000D01*
X35030000Y-90815000D02*
X38650000Y-90815000D01*
X36236667Y-92085000D02*
X36236667Y-93355000D01*
X35030000Y-90625000D02*
X36236667Y-90625000D01*
X33430000Y-94830000D02*
X40251000Y-94830000D01*
X36236667Y-87005000D02*
X36236667Y-88275000D01*
X35030000Y-92565000D02*
X36236667Y-92565000D01*
X35030000Y-85665000D02*
X36236667Y-85665000D01*
X35030000Y-92445000D02*
X36236667Y-92445000D01*
X35030000Y-90145000D02*
X36236667Y-90145000D01*
X35030000Y-87605000D02*
X36236667Y-87605000D01*
X38650000Y-88275000D02*
X38650000Y-87005000D01*
X33190000Y-82750000D02*
X34573000Y-82750000D01*
X35030000Y-90505000D02*
X36236667Y-90505000D01*
X35030000Y-92085000D02*
X35030000Y-93355000D01*
X35030000Y-85305000D02*
X36236667Y-85305000D01*
X35030000Y-87125000D02*
X36236667Y-87125000D01*
X35030000Y-85065000D02*
X36236667Y-85065000D01*
X33430000Y-86140000D02*
X33430000Y-86651000D01*
X38650000Y-85735000D02*
X38650000Y-84465000D01*
X35030000Y-89785000D02*
X36236667Y-89785000D01*
X33430000Y-82990000D02*
X33430000Y-84060000D01*
X33430000Y-82990000D02*
X40251000Y-82990000D01*
X35030000Y-84465000D02*
X35030000Y-85735000D01*
X38650000Y-89545000D02*
X35030000Y-89545000D01*
X35030000Y-92805000D02*
X36236667Y-92805000D01*
X35030000Y-89905000D02*
X36236667Y-89905000D01*
X33190000Y-82750000D02*
X33190000Y-84060000D01*
X35030000Y-93045000D02*
X36236667Y-93045000D01*
X40251000Y-86090000D02*
X40251000Y-86651000D01*
X35030000Y-87845000D02*
X36236667Y-87845000D01*
X33430000Y-93710000D02*
X33430000Y-94830000D01*
X35030000Y-92925000D02*
X36236667Y-92925000D01*
X35030000Y-87005000D02*
X35030000Y-88275000D01*
X35030000Y-93355000D02*
X38650000Y-93355000D01*
X35030000Y-90745000D02*
X36236667Y-90745000D01*
X35030000Y-85545000D02*
X36236667Y-85545000D01*
X38650000Y-87005000D02*
X35030000Y-87005000D01*
X33430000Y-91170000D02*
X33430000Y-91731000D01*
X35030000Y-92205000D02*
X36236667Y-92205000D01*
X35030000Y-84945000D02*
X36236667Y-84945000D01*
X35030000Y-90025000D02*
X36236667Y-90025000D01*
X35030000Y-88205000D02*
X36236667Y-88205000D01*
X33430000Y-88630000D02*
X33430000Y-89191000D01*
X35030000Y-90385000D02*
X36236667Y-90385000D01*
X36236667Y-89545000D02*
X36236667Y-90815000D01*
X38650000Y-92085000D02*
X35030000Y-92085000D01*
X35030000Y-90265000D02*
X36236667Y-90265000D01*
X35030000Y-87485000D02*
X36236667Y-87485000D01*
X35030000Y-85735000D02*
X38650000Y-85735000D01*
X35030000Y-93285000D02*
X36236667Y-93285000D01*
X35030000Y-87365000D02*
X36236667Y-87365000D01*
X40251000Y-91170000D02*
X40251000Y-91731000D01*
X35030000Y-88275000D02*
X38650000Y-88275000D01*
X35030000Y-84585000D02*
X36236667Y-84585000D01*
X40251000Y-88630000D02*
X40251000Y-89191000D01*
X40251000Y-93710000D02*
X40251000Y-94830000D01*
X35030000Y-88085000D02*
X36236667Y-88085000D01*
X35030000Y-92325000D02*
X36236667Y-92325000D01*
X35030000Y-85425000D02*
X36236667Y-85425000D01*
X35030000Y-87965000D02*
X36236667Y-87965000D01*
X35030000Y-84825000D02*
X36236667Y-84825000D01*
X38650000Y-93355000D02*
X38650000Y-92085000D01*
X40251000Y-82990000D02*
X40251000Y-84110000D01*
%TO.C,U6*%
X86660000Y-110445000D02*
X86660000Y-128345000D01*
X86660000Y-128345000D02*
X91960000Y-128345000D01*
X91960000Y-110445000D02*
X90310000Y-110445000D01*
X91960000Y-128345000D02*
X91960000Y-110445000D01*
X88310000Y-110445000D02*
X86660000Y-110445000D01*
X88310000Y-110445000D02*
G75*
G03*
X90310000Y-110445000I1000000J0D01*
G01*
%TO.C,U3*%
X29150000Y-121810000D02*
X29150000Y-127110000D01*
X47050000Y-127110000D02*
X47050000Y-125460000D01*
X47050000Y-121810000D02*
X29150000Y-121810000D01*
X47050000Y-123460000D02*
X47050000Y-121810000D01*
X29150000Y-127110000D02*
X47050000Y-127110000D01*
X47050000Y-123460000D02*
G75*
G03*
X47050000Y-125460000I0J-1000000D01*
G01*
%TO.C,J1*%
X33270000Y-99320000D02*
X34600000Y-99320000D01*
X33270000Y-114680000D02*
X35930000Y-114680000D01*
X33270000Y-100650000D02*
X33270000Y-99320000D01*
X35930000Y-101920000D02*
X35930000Y-114680000D01*
X33270000Y-101920000D02*
X33270000Y-114680000D01*
X33270000Y-101920000D02*
X35930000Y-101920000D01*
%TO.C,R4*%
X49080000Y-97420000D02*
X52920000Y-97420000D01*
X49080000Y-95580000D02*
X52920000Y-95580000D01*
%TO.C,U7*%
X100260000Y-128045000D02*
X105560000Y-128045000D01*
X101910000Y-110145000D02*
X100260000Y-110145000D01*
X105560000Y-110145000D02*
X103910000Y-110145000D01*
X105560000Y-128045000D02*
X105560000Y-110145000D01*
X100260000Y-110145000D02*
X100260000Y-128045000D01*
X101910000Y-110145000D02*
G75*
G03*
X103910000Y-110145000I1000000J0D01*
G01*
%TO.C,U1*%
X69970000Y-100945000D02*
X69970000Y-83045000D01*
X64670000Y-100945000D02*
X69970000Y-100945000D01*
X64670000Y-83045000D02*
X64670000Y-100945000D01*
X66320000Y-83045000D02*
X64670000Y-83045000D01*
X69970000Y-83045000D02*
X68320000Y-83045000D01*
X66320000Y-83045000D02*
G75*
G03*
X68320000Y-83045000I1000000J0D01*
G01*
%TO.C,R3*%
X49080000Y-91580000D02*
X52920000Y-91580000D01*
X49080000Y-93420000D02*
X52920000Y-93420000D01*
%TO.C,R2*%
X49080000Y-88920000D02*
X52920000Y-88920000D01*
X49080000Y-87080000D02*
X52920000Y-87080000D01*
%TD*%
M02*
